<?xml version="1.0" standalone="no"?>
<!DOCTYPE svg PUBLIC "-//W3C//DTD SVG 20010904//EN"
 "http://www.w3.org/TR/2001/REC-SVG-20010904/DTD/svg10.dtd">
<svg version="1.0" xmlns="http://www.w3.org/2000/svg"
 width="200.000000pt" height="200.000000pt" viewBox="0 0 200.000000 200.000000"
 preserveAspectRatio="xMidYMid meet">

<g transform="translate(0.000000,200.000000) scale(0.100000,-0.100000)"
fill="#000000" stroke="none">
<path d="M447 1603 c-4 -3 -7 -21 -7 -39 0 -31 -2 -33 -37 -36 -31 -2 -39 -7
-41 -25 -3 -19 -10 -23 -37 -23 -42 0 -45 -9 -45 -128 0 -102 8 -129 34 -119
13 5 16 24 16 102 0 77 3 95 15 95 12 0 15 -23 17 -122 l3 -123 37 -3 c35 -3
37 -5 40 -40 l3 -37 89 -3 c97 -3 106 1 106 51 0 24 4 27 34 27 28 0 35 4 38
23 2 17 11 23 38 27 33 5 35 7 38 48 l3 42 209 0 209 0 3 -42 c3 -41 5 -43 38
-48 27 -4 36 -10 38 -27 3 -19 10 -23 38 -23 30 0 34 -3 34 -27 0 -50 9 -54
106 -51 l89 3 3 37 c3 35 5 37 40 40 l37 3 3 123 c2 99 5 122 17 122 12 0 15
-18 15 -95 0 -78 3 -97 16 -102 26 -10 34 17 34 119 0 119 -3 128 -45 128 -27
0 -34 4 -37 23 -2 17 -10 23 -40 25 -35 3 -37 5 -40 40 l-3 37 -83 3 c-94 3
-112 -5 -112 -49 0 -26 -4 -29 -30 -29 -23 0 -33 -6 -40 -24 -7 -18 -18 -26
-42 -28 -31 -3 -33 -5 -36 -45 l-3 -43 -209 0 -209 0 -3 43 c-3 40 -5 42 -36
45 -24 2 -35 10 -42 28 -7 18 -17 24 -40 24 -26 0 -30 4 -30 28 0 15 -5 33
-12 40 -13 13 -169 17 -181 5z m145 -75 c3 -29 7 -34 38 -38 l35 -5 0 -129 c0
-95 -3 -130 -12 -133 -10 -4 -13 19 -13 90 0 71 -4 98 -15 107 -29 24 -35 0
-35 -136 l0 -134 -55 0 -55 0 0 205 0 205 54 0 c54 0 55 0 58 -32z m928 -173
l0 -205 -55 0 -55 0 0 134 c0 136 -6 160 -35 136 -11 -9 -15 -36 -15 -107 0
-71 -3 -94 -12 -90 -10 3 -13 38 -13 133 l0 129 35 5 c31 4 35 9 38 38 3 32 4
32 58 32 l54 0 0 -205z m-1085 0 c0 -94 -3 -129 -12 -132 -10 -4 -13 27 -13
132 0 105 3 136 13 133 9 -4 12 -39 12 -133z m1155 -1 c0 -104 -3 -135 -12
-132 -9 3 -14 39 -16 123 -3 122 0 145 18 145 6 0 10 -49 10 -136z m-845 0 c0
-64 -3 -79 -15 -79 -12 0 -16 16 -18 69 -3 76 2 100 21 93 8 -2 12 -28 12 -83z
m540 63 c4 -13 5 -50 3 -82 -2 -45 -7 -60 -18 -60 -12 0 -16 16 -18 69 -2 38
-1 75 2 83 8 20 25 15 31 -10z"/>
<path d="M342 948 c2 -36 7 -44 26 -46 16 -3 22 2 22 17 0 33 -19 71 -35 71
-13 0 -15 -9 -13 -42z"/>
<path d="M420 950 c0 -41 15 -58 44 -47 21 8 -2 87 -26 87 -14 0 -18 -8 -18
-40z"/>
<path d="M529 989 c-1 -2 -2 -55 -3 -117 -2 -98 0 -115 15 -123 29 -15 49 0
49 37 0 30 3 34 25 34 40 0 75 42 75 88 0 54 -25 75 -100 80 -33 2 -61 3 -61
1z m97 -74 c6 -16 -12 -45 -27 -45 -5 0 -9 14 -9 30 0 32 26 43 36 15z"/>
<path d="M760 962 c-51 -52 -49 -163 4 -197 59 -39 144 -18 166 41 24 61 3
151 -39 174 -11 5 -38 10 -61 10 -32 0 -48 -6 -70 -28z m99 -46 c17 -21 10
-87 -11 -100 -40 -25 -75 44 -48 94 12 23 42 26 59 6z"/>
<path d="M970 974 c0 -8 7 -62 16 -119 15 -98 18 -103 42 -108 45 -9 66 7 81
59 l13 49 13 -48 c8 -27 16 -51 20 -55 7 -7 72 -8 80 0 6 5 45 203 45 225 0 8
-13 13 -34 13 -35 0 -35 0 -42 -57 -12 -98 -18 -101 -38 -19 -16 68 -20 76
-41 76 -25 0 -37 -24 -51 -103 -11 -62 -21 -51 -29 28 l-7 75 -34 0 c-24 0
-34 -5 -34 -16z"/>
<path d="M1310 871 c0 -69 4 -121 10 -123 5 -2 37 -1 70 0 56 4 60 5 60 28 0
21 -5 24 -35 24 -28 0 -35 4 -35 20 0 15 7 20 25 20 20 0 25 5 25 25 0 20 -5
25 -25 25 -18 0 -25 5 -25 20 0 16 7 20 35 20 32 0 35 2 35 30 l0 30 -70 0
-70 0 0 -119z"/>
<path d="M1490 871 c0 -96 3 -120 15 -125 29 -11 45 5 45 45 0 21 4 39 8 39 4
0 18 -20 30 -45 17 -35 26 -43 39 -38 41 14 44 24 22 62 -19 34 -19 39 -5 66
22 42 20 62 -9 90 -20 21 -34 25 -85 25 l-60 0 0 -119z m98 31 c3 -17 -2 -22
-17 -22 -16 0 -21 6 -21 26 0 33 33 30 38 -4z"/>
<path d="M686 620 c-2 -8 -4 -62 -3 -120 l2 -105 33 -3 c32 -3 32 -3 32 42 0
42 2 46 25 46 20 0 25 5 25 25 0 20 -5 25 -25 25 -20 0 -25 5 -25 25 0 22 4
25 36 25 32 0 35 2 32 27 -3 25 -6 26 -65 28 -49 1 -64 -3 -67 -15z"/>
<path d="M845 631 c-13 -12 -3 -43 15 -48 17 -5 20 -14 20 -68 0 -55 -3 -63
-21 -68 -15 -4 -20 -12 -17 -29 3 -21 8 -23 68 -23 60 0 65 2 68 23 3 17 -2
25 -17 29 -19 5 -21 13 -21 69 0 48 4 64 14 64 15 0 27 32 17 48 -6 9 -117 13
-126 3z"/>
<path d="M1001 632 c-14 -5 -15 -52 -1 -53 6 -1 16 -2 23 -3 8 -1 13 -29 15
-93 l3 -93 34 0 35 0 0 95 c0 71 3 95 13 94 31 -4 38 2 35 28 -3 27 -4 27 -74
28 -39 0 -77 -1 -83 -3z"/>
<path d="M1193 593 c9 -51 32 -72 37 -33 7 46 0 70 -21 70 -19 0 -21 -4 -16
-37z"/>
<path d="M1260 585 c0 -49 23 -64 34 -22 12 44 7 67 -14 67 -17 0 -20 -7 -20
-45z"/>
</g>
</svg>
